<svg version="1.1" id="Layer_1" xmlns="http://www.w3.org/2000/svg" xmlns:xlink="http://www.w3.org/1999/xlink" x="0px" y="0px"
	 width="100%" viewBox="0 0 1080 1080" enable-background="new 0 0 1080 1080" xml:space="preserve">
<path fill="#FFFFFF" opacity="1.000000" stroke="none" 
	d="
M493.000000,1081.000000 
	C328.685577,1081.000000 164.871140,1081.000000 1.028358,1081.000000 
	C1.028358,721.060425 1.028358,361.120911 1.028358,1.090671 
	C360.898010,1.090671 720.796082,1.090671 1080.847046,1.090671 
	C1080.847046,360.999939 1080.847046,720.999939 1080.847046,1081.000000 
	C885.120422,1081.000000 689.310242,1081.000000 493.000000,1081.000000 
M728.368958,467.958527 
	C740.265503,428.302795 752.176819,388.651520 764.047302,348.988007 
	C766.721619,340.052246 764.350586,336.971832 754.943420,336.949036 
	C746.778259,336.929230 738.612854,336.923645 730.447693,336.952026 
	C723.178223,336.977325 721.871704,338.014313 720.024231,344.957306 
	C712.284790,374.043152 704.547791,403.129639 696.779419,432.207733 
	C696.309082,433.967987 695.575195,435.657837 694.963989,437.380432 
	C693.095825,435.663239 692.433960,434.038757 691.948120,432.363281 
	C683.473755,403.137970 675.031067,373.903473 666.555786,344.678467 
	C664.548096,337.755310 663.505493,336.972687 656.443604,336.953247 
	C645.945496,336.924316 635.447205,336.924194 624.949097,336.952240 
	C617.924377,336.971039 616.672852,337.919495 614.783813,344.632233 
	C606.630920,373.603699 598.500977,402.581665 590.339478,431.550690 
	C589.891113,433.142181 589.232971,434.674591 588.672424,436.234467 
	C586.928406,434.413025 586.370239,432.739807 585.884949,431.045776 
	C577.595581,402.112000 569.233093,373.198669 561.109192,344.218475 
	C559.661438,339.053955 557.060852,336.770386 551.605286,336.871582 
	C538.945190,337.106445 526.277710,336.920319 513.613281,336.954010 
	C504.933319,336.977081 502.481903,340.248596 504.963104,348.578522 
	C509.614685,364.194977 514.331665,379.791992 519.033630,395.393433 
	C530.692566,434.078583 542.351196,472.763885 554.028076,511.443604 
	C556.161133,518.509216 558.156128,519.982178 565.447205,519.996521 
	C575.612122,520.016541 585.776978,520.004578 595.941895,520.000793 
	C604.977478,519.997375 606.356445,518.939453 608.904663,510.246307 
	C616.715515,483.599304 624.522339,456.951111 632.390137,430.320953 
	C633.036987,428.131561 634.133179,426.074890 635.573792,422.635742 
	C636.702087,425.920746 637.350403,427.599670 637.859009,429.319946 
	C645.919800,456.586395 653.959473,483.859131 662.011902,511.128082 
	C664.222229,518.612976 666.010071,519.982788 673.640259,519.996826 
	C683.805176,520.015503 693.970093,520.018433 704.134949,519.995667 
	C711.180481,519.979919 713.135864,518.564453 715.211304,511.723755 
	C719.555908,497.403625 723.825500,483.060730 728.368958,467.958527 
M178.500687,336.944122 
	C174.000885,336.944397 169.501022,336.931641 165.001282,336.947998 
	C158.186859,336.972717 157.047668,338.036743 157.046005,344.664185 
	C157.031876,400.663086 157.032425,456.661987 157.044968,512.660889 
	C157.046310,518.645691 158.354675,519.960938 164.392990,519.988220 
	C174.725906,520.034912 185.059265,520.021606 195.392319,519.993835 
	C201.942108,519.976196 202.826736,519.067139 202.828873,512.438049 
	C202.837875,484.605255 202.827911,456.772461 202.843552,428.939667 
	C202.844513,427.229919 203.006363,425.520233 203.093369,423.810516 
	C205.499496,424.928650 206.734955,426.385437 207.866562,427.918854 
	C229.231033,456.869385 250.521210,485.875336 272.052216,514.701416 
	C273.831055,517.082947 277.155548,519.616699 279.880646,519.755981 
	C291.017883,520.325256 302.201477,520.026978 313.367584,519.971252 
	C317.105896,519.952576 319.164307,518.279480 319.160522,514.167358 
	C319.107574,456.835236 319.105835,399.502991 319.165466,342.170837 
	C319.169464,338.317657 317.717773,336.830963 313.831787,336.890686 
	C303.334503,337.052002 292.833038,336.934753 282.333252,336.948578 
	C275.232178,336.957947 274.193420,337.962769 274.189270,344.951050 
	C274.174469,369.950562 274.190186,394.950073 274.168854,419.949585 
	C274.167236,421.848999 273.965912,423.748199 273.857422,425.647522 
	C271.473083,424.717163 270.130463,423.393341 269.044067,421.884979 
	C250.159271,395.664917 231.240768,369.468567 212.510468,343.138367 
	C209.421371,338.795837 206.017654,336.521545 200.494110,336.846069 
	C193.518341,337.255829 186.500198,336.944427 178.500687,336.944122 
M421.501007,408.131897 
	C416.835419,408.131378 412.160034,407.941956 407.506897,408.182465 
	C402.651093,408.433411 400.913513,406.149384 401.028137,401.599884 
	C401.153961,396.604218 401.054413,391.602875 401.055145,386.604004 
	C401.056427,377.979767 401.727875,377.297577 410.428162,377.293732 
	C433.422974,377.283539 456.417877,377.316925 479.412598,377.268311 
	C485.648590,377.255127 487.033936,375.818207 487.121735,369.583069 
	C487.243744,360.919373 487.331482,352.254486 487.337189,343.590057 
	C487.341034,337.708344 486.557556,336.954651 480.688599,336.952759 
	C437.864899,336.938995 395.041229,336.939880 352.217529,336.951904 
	C346.085693,336.953613 345.051636,337.985352 345.049652,344.301849 
	C345.031982,400.289246 345.031281,456.276642 345.050903,512.264038 
	C345.053070,518.433289 346.575653,519.982544 352.696442,519.986267 
	C395.853394,520.012329 439.010315,520.010071 482.167267,519.989685 
	C488.224762,519.986816 489.723724,518.426392 489.761078,512.207886 
	C489.807159,504.543213 489.773712,496.878082 489.772797,489.213135 
	C489.771667,479.899506 489.355804,479.482941 479.841675,479.480621 
	C455.847076,479.474701 431.852509,479.482086 407.857910,479.476013 
	C401.063873,479.474304 401.060944,479.461426 401.055939,472.478333 
	C401.051666,466.479675 401.038727,460.480988 401.059723,454.482422 
	C401.080475,448.552368 401.635559,447.996094 407.743988,447.986511 
	C421.574188,447.964874 435.405151,447.899719 449.234222,448.025391 
	C453.510284,448.064240 455.215027,446.392975 455.128723,442.084869 
	C454.945160,432.923950 454.926208,423.753540 455.131500,414.593536 
	C455.240082,409.747955 453.017334,408.052521 448.494446,408.104797 
	C439.830902,408.205048 431.165344,408.132660 421.501007,408.131897 
M836.190796,336.713623 
	C824.253540,339.103271 813.323059,343.785767 803.714966,351.306000 
	C779.377991,370.354645 775.774597,404.058960 795.604797,426.975372 
	C804.381897,437.118500 815.527344,443.530975 828.383118,446.902466 
	C840.765503,450.149811 853.278625,452.898590 865.661804,456.143250 
	C870.117615,457.310760 874.745422,458.655914 878.622986,461.021271 
	C886.502563,465.828003 886.102661,474.833038 878.134949,479.528168 
	C876.011719,480.779358 873.651672,481.889343 871.259766,482.383148 
	C849.829651,486.807709 830.054321,485.487488 815.480225,466.110748 
	C812.183350,461.727478 809.364197,461.398987 804.748352,464.483948 
	C796.582581,469.941528 788.574829,475.634827 780.447876,481.151337 
	C776.406555,483.894592 775.723877,487.472443 778.912109,490.823120 
	C784.252319,496.435425 789.442444,502.650818 795.910706,506.644745 
	C816.687012,519.473389 839.912170,523.076111 863.981873,522.318848 
	C879.652710,521.825806 894.699158,518.789185 908.559509,511.101196 
	C932.409485,497.872101 943.006958,472.072510 935.241821,445.888458 
	C929.184937,425.464539 914.297302,414.562408 894.688171,409.130615 
	C879.628235,404.958954 864.443054,401.241425 849.358398,397.156158 
	C846.352905,396.342194 843.305420,395.158600 840.702759,393.484100 
	C833.923950,389.122681 833.966064,381.648376 840.735352,377.196503 
	C842.912292,375.764832 845.510986,374.327118 848.006897,374.147919 
	C855.765259,373.590668 863.601257,373.095856 871.342651,373.589020 
	C880.298645,374.159485 887.019470,379.616943 892.974060,385.898163 
	C895.967957,389.056183 898.695618,389.643036 902.439331,386.747406 
	C909.943115,380.943359 917.777954,375.568695 925.434631,369.960175 
	C930.067383,366.566742 930.804932,364.292755 926.556458,360.256439 
	C920.607849,354.605011 914.330750,348.722351 907.111084,345.093506 
	C884.942688,333.950958 861.248901,332.268158 836.190796,336.713623 
M270.894989,732.075134 
	C270.895538,682.582764 270.896149,633.090393 270.896637,583.598022 
	C270.896698,576.099182 270.952606,568.599792 270.880798,561.101624 
	C270.800232,552.687439 268.093201,550.003113 259.833466,549.990479 
	C249.335098,549.974426 238.836685,549.969238 228.338348,549.992004 
	C219.343002,550.011475 216.296341,553.026978 216.288605,561.954285 
	C216.270279,583.117676 216.288300,604.281067 216.272232,625.444458 
	C216.270935,627.157104 216.121063,628.869568 215.979218,631.875427 
	C211.311340,625.404175 207.440094,620.054321 203.586426,614.691833 
	C189.980072,595.758240 176.325745,576.858643 162.812103,557.859070 
	C159.069199,552.596680 154.652130,549.644775 147.811127,549.875977 
	C135.993118,550.275208 124.151863,549.986023 112.320358,549.986694 
	C101.546112,549.987305 98.991402,552.489014 98.990013,563.145142 
	C98.982742,618.969849 98.984711,674.794556 98.988602,730.619263 
	C98.989197,739.174255 101.974686,742.594788 110.495415,742.797241 
	C121.320244,743.054443 132.159592,743.022827 142.985840,742.793030 
	C151.191864,742.618835 154.004028,739.489380 154.008881,731.382629 
	C154.022064,709.386047 154.013412,687.389404 154.013428,665.392822 
	C154.013428,661.801575 154.013428,658.210388 154.013428,653.152771 
	C156.330200,656.216248 157.801895,658.120544 159.229904,660.056946 
	C177.812958,685.256653 196.411087,710.445374 214.946091,735.680420 
	C217.841293,739.622131 221.181885,742.725342 226.340561,742.772888 
	C237.503494,742.875916 248.672913,743.048340 259.829559,742.776428 
	C266.717957,742.608582 269.612396,739.667480 270.894989,732.075134 
M900.041199,547.701965 
	C881.624695,548.278076 864.785278,553.456726 849.505066,564.025085 
	C816.895813,586.578857 816.912170,635.216064 849.502747,657.720398 
	C860.164673,665.082642 871.978088,669.024353 884.356812,671.962952 
	C896.003357,674.727722 907.623474,677.630676 919.158875,680.820984 
	C922.630676,681.781128 926.294678,683.627075 926.191223,688.174561 
	C926.094116,692.441162 922.491577,693.703125 919.277466,695.123474 
	C918.669495,695.392090 918.060242,695.716492 917.417908,695.839966 
	C897.575073,699.654846 879.194824,698.772644 865.691772,680.638977 
	C861.390930,674.863342 855.910522,674.040649 849.841736,678.003113 
	C840.920715,683.827881 832.167114,689.923584 823.533020,696.167847 
	C818.381653,699.893250 817.356689,704.867065 821.029419,710.153320 
	C824.318604,714.887634 828.151917,719.407410 832.435059,723.253479 
	C841.276917,731.193115 852.120239,735.695251 863.380737,738.911072 
	C893.844238,747.611023 924.121643,748.439087 953.649048,735.130981 
	C975.268188,725.387268 992.167053,704.572571 988.802673,672.742065 
	C986.520020,651.146179 973.437195,631.622314 947.113770,623.784058 
	C930.544556,618.850281 913.743408,614.695190 897.046143,610.191284 
	C892.830444,609.054138 887.498108,608.072510 887.788757,602.785278 
	C888.090942,597.289856 893.788696,596.686707 898.113342,595.965271 
	C912.987549,593.483765 926.527283,595.483521 937.382080,607.478210 
	C941.929260,612.502930 946.232361,612.440674 951.621948,608.580994 
	C960.017090,602.569031 968.372864,596.500244 976.670105,590.354065 
	C981.373596,586.869934 982.694214,582.389343 979.056946,577.822632 
	C974.672058,572.317200 969.757507,566.777100 963.955688,562.940552 
	C944.923950,550.355713 923.309814,547.167603 900.041199,547.701965 
M440.706085,735.822144 
	C440.856110,724.516113 441.282074,713.204163 441.043213,701.906372 
	C440.918152,695.990479 438.154144,693.658020 432.339996,692.991394 
	C429.702301,692.688965 427.028046,692.600037 424.370087,692.596497 
	C402.046997,692.566772 379.723419,692.634155 357.401520,692.466858 
	C355.754242,692.454529 352.766113,690.937744 352.698181,689.960693 
	C352.265594,683.740295 352.478088,677.475098 352.478088,670.714172 
	C355.038483,670.714172 356.834656,670.714233 358.630829,670.714233 
	C370.625366,670.714050 382.620331,670.777039 394.614258,670.692688 
	C403.573761,670.629639 406.639404,667.532959 406.701416,658.658264 
	C406.759644,650.329102 406.760803,641.998901 406.701050,633.669800 
	C406.636292,624.639160 403.316132,621.225098 394.363434,621.129395 
	C385.035431,621.029663 375.705505,621.106079 366.376434,621.105652 
	C361.921082,621.105469 357.465698,621.105591 352.797607,621.105591 
	C352.797607,613.796204 352.797607,607.096252 352.797607,599.894409 
	C354.963440,599.894409 356.761963,599.894409 358.560486,599.894409 
	C380.717041,599.894409 402.873596,599.908752 425.030151,599.887939 
	C435.153503,599.878418 438.795166,596.219055 438.885590,585.983582 
	C438.959137,577.655334 438.989258,569.326355 438.986816,560.997742 
	C438.984436,552.897400 435.991760,549.991394 427.718658,549.990540 
	C385.071442,549.986023 342.424225,549.988159 299.777008,549.988464 
	C289.538147,549.988525 286.991882,552.572021 286.990875,563.036926 
	C286.985565,618.678223 286.985931,674.319519 286.990723,729.960815 
	C286.991516,739.187622 290.243713,742.809021 299.503510,742.831970 
	C342.816711,742.939636 386.130371,742.885132 429.443848,742.874695 
	C434.288300,742.873535 438.252960,741.254944 440.706085,735.822144 
M624.765930,612.183899 
	C626.003967,584.853455 614.254028,566.784363 588.683350,556.934021 
	C576.588013,552.274719 563.915405,550.242310 551.040710,550.133057 
	C522.209717,549.888428 493.375580,550.003540 464.542694,549.999023 
	C456.143799,549.997742 453.017609,553.000183 453.011963,561.376709 
	C452.973969,617.709473 452.974945,674.042175 453.009552,730.374939 
	C453.015137,739.445984 456.385651,742.818604 465.369965,742.870605 
	C477.702789,742.942017 490.036285,742.899841 502.369507,742.887695 
	C515.123840,742.875183 518.555176,739.397400 518.566406,726.448853 
	C518.581116,709.449036 518.562439,692.449219 518.583862,675.449402 
	C518.586060,673.703674 518.764160,671.958191 518.866272,670.111389 
	C520.589478,670.017151 521.737488,669.914673 522.886658,669.897888 
	C531.104980,669.777527 531.080200,669.792053 533.926270,677.654785 
	C540.606873,696.111267 547.278137,714.571228 554.027100,733.002625 
	C556.764465,740.478516 560.266968,742.857849 568.283386,742.879028 
	C582.449829,742.916443 596.616516,742.923157 610.782837,742.879089 
	C621.369141,742.846191 625.792358,735.889282 621.449829,726.223145 
	C615.244324,712.410095 609.038696,698.597229 602.835449,684.783203 
	C599.110901,676.488953 595.390747,668.192749 591.683228,659.930054 
	C613.225586,649.033081 622.538696,631.745483 624.765930,612.183899 
M738.063416,740.604370 
	C741.950684,739.710510 745.909729,739.050720 749.713623,737.884827 
	C775.105957,730.102417 794.771912,715.472961 805.923828,690.672974 
	C814.715149,671.122437 816.691956,650.670898 813.981323,629.654968 
	C810.407959,601.949951 797.357361,580.086243 773.154114,565.555603 
	C753.730469,553.894409 732.093750,550.471191 709.917175,550.072998 
	C688.937134,549.696289 667.944885,549.965759 646.958130,550.004944 
	C639.261963,550.019287 635.852783,553.277954 635.847595,560.834290 
	C635.808594,617.465393 635.804321,674.096558 635.855408,730.727661 
	C635.862427,738.539307 639.568481,742.771240 647.418152,742.700684 
	C677.355957,742.431519 707.354675,744.639160 738.063416,740.604370 
z"/>
<path fill="#5F18EB" opacity="1.000000" stroke="none" 
	d="
M728.247437,468.342865 
	C723.825500,483.060730 719.555908,497.403625 715.211304,511.723755 
	C713.135864,518.564453 711.180481,519.979919 704.134949,519.995667 
	C693.970093,520.018433 683.805176,520.015503 673.640259,519.996826 
	C666.010071,519.982788 664.222229,518.612976 662.011902,511.128082 
	C653.959473,483.859131 645.919800,456.586395 637.859009,429.319946 
	C637.350403,427.599670 636.702087,425.920746 635.573792,422.635742 
	C634.133179,426.074890 633.036987,428.131561 632.390137,430.320953 
	C624.522339,456.951111 616.715515,483.599304 608.904663,510.246307 
	C606.356445,518.939453 604.977478,519.997375 595.941895,520.000793 
	C585.776978,520.004578 575.612122,520.016541 565.447205,519.996521 
	C558.156128,519.982178 556.161133,518.509216 554.028076,511.443604 
	C542.351196,472.763885 530.692566,434.078583 519.033630,395.393433 
	C514.331665,379.791992 509.614685,364.194977 504.963104,348.578522 
	C502.481903,340.248596 504.933319,336.977081 513.613281,336.954010 
	C526.277710,336.920319 538.945190,337.106445 551.605286,336.871582 
	C557.060852,336.770386 559.661438,339.053955 561.109192,344.218475 
	C569.233093,373.198669 577.595581,402.112000 585.884949,431.045776 
	C586.370239,432.739807 586.928406,434.413025 588.672424,436.234467 
	C589.232971,434.674591 589.891113,433.142181 590.339478,431.550690 
	C598.500977,402.581665 606.630920,373.603699 614.783813,344.632233 
	C616.672852,337.919495 617.924377,336.971039 624.949097,336.952240 
	C635.447205,336.924194 645.945496,336.924316 656.443604,336.953247 
	C663.505493,336.972687 664.548096,337.755310 666.555786,344.678467 
	C675.031067,373.903473 683.473755,403.137970 691.948120,432.363281 
	C692.433960,434.038757 693.095825,435.663239 694.963989,437.380432 
	C695.575195,435.657837 696.309082,433.967987 696.779419,432.207733 
	C704.547791,403.129639 712.284790,374.043152 720.024231,344.957306 
	C721.871704,338.014313 723.178223,336.977325 730.447693,336.952026 
	C738.612854,336.923645 746.778259,336.929230 754.943420,336.949036 
	C764.350586,336.971832 766.721619,340.052246 764.047302,348.988007 
	C752.176819,388.651520 740.265503,428.302795 728.247437,468.342865 
z"/>
<path fill="#5F18EB" opacity="1.000000" stroke="none" 
	d="
M179.000519,336.944122 
	C186.500198,336.944427 193.518341,337.255829 200.494110,336.846069 
	C206.017654,336.521545 209.421371,338.795837 212.510468,343.138367 
	C231.240768,369.468567 250.159271,395.664917 269.044067,421.884979 
	C270.130463,423.393341 271.473083,424.717163 273.857422,425.647522 
	C273.965912,423.748199 274.167236,421.848999 274.168854,419.949585 
	C274.190186,394.950073 274.174469,369.950562 274.189270,344.951050 
	C274.193420,337.962769 275.232178,336.957947 282.333252,336.948578 
	C292.833038,336.934753 303.334503,337.052002 313.831787,336.890686 
	C317.717773,336.830963 319.169464,338.317657 319.165466,342.170837 
	C319.105835,399.502991 319.107574,456.835236 319.160522,514.167358 
	C319.164307,518.279480 317.105896,519.952576 313.367584,519.971252 
	C302.201477,520.026978 291.017883,520.325256 279.880646,519.755981 
	C277.155548,519.616699 273.831055,517.082947 272.052216,514.701416 
	C250.521210,485.875336 229.231033,456.869385 207.866562,427.918854 
	C206.734955,426.385437 205.499496,424.928650 203.093369,423.810516 
	C203.006363,425.520233 202.844513,427.229919 202.843552,428.939667 
	C202.827911,456.772461 202.837875,484.605255 202.828873,512.438049 
	C202.826736,519.067139 201.942108,519.976196 195.392319,519.993835 
	C185.059265,520.021606 174.725906,520.034912 164.392990,519.988220 
	C158.354675,519.960938 157.046310,518.645691 157.044968,512.660889 
	C157.032425,456.661987 157.031876,400.663086 157.046005,344.664185 
	C157.047668,338.036743 158.186859,336.972717 165.001282,336.947998 
	C169.501022,336.931641 174.000885,336.944397 179.000519,336.944122 
z"/>
<path fill="#5E18EB" opacity="1.000000" stroke="none" 
	d="
M422.000824,408.131897 
	C431.165344,408.132660 439.830902,408.205048 448.494446,408.104797 
	C453.017334,408.052521 455.240082,409.747955 455.131500,414.593536 
	C454.926208,423.753540 454.945160,432.923950 455.128723,442.084869 
	C455.215027,446.392975 453.510284,448.064240 449.234222,448.025391 
	C435.405151,447.899719 421.574188,447.964874 407.743988,447.986511 
	C401.635559,447.996094 401.080475,448.552368 401.059723,454.482422 
	C401.038727,460.480988 401.051666,466.479675 401.055939,472.478333 
	C401.060944,479.461426 401.063873,479.474304 407.857910,479.476013 
	C431.852509,479.482086 455.847076,479.474701 479.841675,479.480621 
	C489.355804,479.482941 489.771667,479.899506 489.772797,489.213135 
	C489.773712,496.878082 489.807159,504.543213 489.761078,512.207886 
	C489.723724,518.426392 488.224762,519.986816 482.167267,519.989685 
	C439.010315,520.010071 395.853394,520.012329 352.696442,519.986267 
	C346.575653,519.982544 345.053070,518.433289 345.050903,512.264038 
	C345.031281,456.276642 345.031982,400.289246 345.049652,344.301849 
	C345.051636,337.985352 346.085693,336.953613 352.217529,336.951904 
	C395.041229,336.939880 437.864899,336.938995 480.688599,336.952759 
	C486.557556,336.954651 487.341034,337.708344 487.337189,343.590057 
	C487.331482,352.254486 487.243744,360.919373 487.121735,369.583069 
	C487.033936,375.818207 485.648590,377.255127 479.412598,377.268311 
	C456.417877,377.316925 433.422974,377.283539 410.428162,377.293732 
	C401.727875,377.297577 401.056427,377.979767 401.055145,386.604004 
	C401.054413,391.602875 401.153961,396.604218 401.028137,401.599884 
	C400.913513,406.149384 402.651093,408.433411 407.506897,408.182465 
	C412.160034,407.941956 416.835419,408.131378 422.000824,408.131897 
z"/>
<path fill="#5F18EB" opacity="1.000000" stroke="none" 
	d="
M836.597778,336.586609 
	C861.248901,332.268158 884.942688,333.950958 907.111084,345.093506 
	C914.330750,348.722351 920.607849,354.605011 926.556458,360.256439 
	C930.804932,364.292755 930.067383,366.566742 925.434631,369.960175 
	C917.777954,375.568695 909.943115,380.943359 902.439331,386.747406 
	C898.695618,389.643036 895.967957,389.056183 892.974060,385.898163 
	C887.019470,379.616943 880.298645,374.159485 871.342651,373.589020 
	C863.601257,373.095856 855.765259,373.590668 848.006897,374.147919 
	C845.510986,374.327118 842.912292,375.764832 840.735352,377.196503 
	C833.966064,381.648376 833.923950,389.122681 840.702759,393.484100 
	C843.305420,395.158600 846.352905,396.342194 849.358398,397.156158 
	C864.443054,401.241425 879.628235,404.958954 894.688171,409.130615 
	C914.297302,414.562408 929.184937,425.464539 935.241821,445.888458 
	C943.006958,472.072510 932.409485,497.872101 908.559509,511.101196 
	C894.699158,518.789185 879.652710,521.825806 863.981873,522.318848 
	C839.912170,523.076111 816.687012,519.473389 795.910706,506.644745 
	C789.442444,502.650818 784.252319,496.435425 778.912109,490.823120 
	C775.723877,487.472443 776.406555,483.894592 780.447876,481.151337 
	C788.574829,475.634827 796.582581,469.941528 804.748352,464.483948 
	C809.364197,461.398987 812.183350,461.727478 815.480225,466.110748 
	C830.054321,485.487488 849.829651,486.807709 871.259766,482.383148 
	C873.651672,481.889343 876.011719,480.779358 878.134949,479.528168 
	C886.102661,474.833038 886.502563,465.828003 878.622986,461.021271 
	C874.745422,458.655914 870.117615,457.310760 865.661804,456.143250 
	C853.278625,452.898590 840.765503,450.149811 828.383118,446.902466 
	C815.527344,443.530975 804.381897,437.118500 795.604797,426.975372 
	C775.774597,404.058960 779.377991,370.354645 803.714966,351.306000 
	C813.323059,343.785767 824.253540,339.103271 836.597778,336.586609 
z"/>
<path fill="#FFE031" opacity="1.000000" stroke="none" 
	d="
M270.889465,732.520264 
	C269.612396,739.667480 266.717957,742.608582 259.829559,742.776428 
	C248.672913,743.048340 237.503494,742.875916 226.340561,742.772888 
	C221.181885,742.725342 217.841293,739.622131 214.946091,735.680420 
	C196.411087,710.445374 177.812958,685.256653 159.229904,660.056946 
	C157.801895,658.120544 156.330200,656.216248 154.013428,653.152771 
	C154.013428,658.210388 154.013428,661.801575 154.013428,665.392822 
	C154.013412,687.389404 154.022064,709.386047 154.008881,731.382629 
	C154.004028,739.489380 151.191864,742.618835 142.985840,742.793030 
	C132.159592,743.022827 121.320244,743.054443 110.495415,742.797241 
	C101.974686,742.594788 98.989197,739.174255 98.988602,730.619263 
	C98.984711,674.794556 98.982742,618.969849 98.990013,563.145142 
	C98.991402,552.489014 101.546112,549.987305 112.320358,549.986694 
	C124.151863,549.986023 135.993118,550.275208 147.811127,549.875977 
	C154.652130,549.644775 159.069199,552.596680 162.812103,557.859070 
	C176.325745,576.858643 189.980072,595.758240 203.586426,614.691833 
	C207.440094,620.054321 211.311340,625.404175 215.979218,631.875427 
	C216.121063,628.869568 216.270935,627.157104 216.272232,625.444458 
	C216.288300,604.281067 216.270279,583.117676 216.288605,561.954285 
	C216.296341,553.026978 219.343002,550.011475 228.338348,549.992004 
	C238.836685,549.969238 249.335098,549.974426 259.833466,549.990479 
	C268.093201,550.003113 270.800232,552.687439 270.880798,561.101624 
	C270.952606,568.599792 270.896698,576.099182 270.896637,583.598022 
	C270.896149,633.090393 270.895538,682.582764 270.889465,732.520264 
M225.893448,619.500000 
	C225.848053,626.827698 226.055527,634.168518 225.677673,641.479065 
	C225.372391,647.385559 221.029419,650.109680 216.582230,647.467712 
	C214.946838,646.496216 213.668228,644.759644 212.516342,643.163147 
	C193.326736,616.566956 174.130829,589.974854 155.100037,563.265198 
	C152.886581,560.158630 150.478653,559.047424 146.788681,559.109802 
	C135.797546,559.295715 124.792755,559.429199 113.810944,559.059204 
	C109.028549,558.898132 108.074638,560.552246 108.086006,564.983887 
	C108.224937,619.121948 108.176315,673.260559 108.176300,727.398987 
	C108.176300,729.170105 108.176308,730.941284 108.176308,732.687988 
	C120.741478,732.687988 132.615509,732.687988 144.823685,732.687988 
	C144.823685,730.461304 144.823685,728.650940 144.823685,726.840515 
	C144.823685,699.854553 144.823303,672.868652 144.824799,645.882690 
	C144.824875,644.550232 144.443329,643.040344 144.940369,641.925598 
	C145.751846,640.105652 146.811676,637.742065 148.379211,637.097473 
	C149.949646,636.451843 152.453857,637.260864 154.203262,638.128784 
	C155.565475,638.804504 156.470566,640.495117 157.454163,641.826782 
	C178.918793,670.887024 200.348007,699.973572 221.864075,728.995667 
	C223.066833,730.617981 224.925659,732.850891 226.535370,732.898499 
	C237.960052,733.236511 249.399399,733.078430 260.992767,733.078430 
	C260.992767,674.877563 260.992767,617.326782 260.992767,559.476379 
	C249.301254,559.476379 237.901810,559.476379 225.893341,559.476379 
	C225.893341,579.299377 225.893341,598.899719 225.893448,619.500000 
z"/>
<path fill="#FFE031" opacity="1.000000" stroke="none" 
	d="
M900.497314,547.640503 
	C923.309814,547.167603 944.923950,550.355713 963.955688,562.940552 
	C969.757507,566.777100 974.672058,572.317200 979.056946,577.822632 
	C982.694214,582.389343 981.373596,586.869934 976.670105,590.354065 
	C968.372864,596.500244 960.017090,602.569031 951.621948,608.580994 
	C946.232361,612.440674 941.929260,612.502930 937.382080,607.478210 
	C926.527283,595.483521 912.987549,593.483765 898.113342,595.965271 
	C893.788696,596.686707 888.090942,597.289856 887.788757,602.785278 
	C887.498108,608.072510 892.830444,609.054138 897.046143,610.191284 
	C913.743408,614.695190 930.544556,618.850281 947.113770,623.784058 
	C973.437195,631.622314 986.520020,651.146179 988.802673,672.742065 
	C992.167053,704.572571 975.268188,725.387268 953.649048,735.130981 
	C924.121643,748.439087 893.844238,747.611023 863.380737,738.911072 
	C852.120239,735.695251 841.276917,731.193115 832.435059,723.253479 
	C828.151917,719.407410 824.318604,714.887634 821.029419,710.153320 
	C817.356689,704.867065 818.381653,699.893250 823.533020,696.167847 
	C832.167114,689.923584 840.920715,683.827881 849.841736,678.003113 
	C855.910522,674.040649 861.390930,674.863342 865.691772,680.638977 
	C879.194824,698.772644 897.575073,699.654846 917.417908,695.839966 
	C918.060242,695.716492 918.669495,695.392090 919.277466,695.123474 
	C922.491577,693.703125 926.094116,692.441162 926.191223,688.174561 
	C926.294678,683.627075 922.630676,681.781128 919.158875,680.820984 
	C907.623474,677.630676 896.003357,674.727722 884.356812,671.962952 
	C871.978088,669.024353 860.164673,665.082642 849.502747,657.720398 
	C816.912170,635.216064 816.895813,586.578857 849.505066,564.025085 
	C864.785278,553.456726 881.624695,548.278076 900.497314,547.640503 
M971.766296,708.175354 
	C987.301392,684.935242 982.224121,644.068604 944.404968,632.880981 
	C932.295044,629.298523 920.014832,626.295715 907.858459,622.864685 
	C900.831238,620.881287 893.729797,618.986633 886.973145,616.275879 
	C881.828613,614.211914 878.339539,610.052002 878.006470,604.067383 
	C877.662231,597.880676 880.760132,593.529297 885.880798,590.622620 
	C888.593384,589.082886 891.560059,587.552002 894.580627,587.066467 
	C911.556335,584.337585 927.872192,584.716919 941.075745,598.194519 
	C942.367432,599.513000 945.418030,601.113525 946.281982,600.535461 
	C954.784058,594.846619 962.995911,588.724060 972.245544,582.033447 
	C967.102356,577.717346 963.003174,573.549683 958.227661,570.411133 
	C945.698914,562.176819 931.498230,558.589600 916.752869,557.409363 
	C894.344055,555.615784 872.897522,558.317017 854.043030,572.124512 
	C838.673523,583.379700 831.126160,603.736938 835.915039,622.092407 
	C840.929016,641.310608 854.327576,652.648499 872.298645,658.604980 
	C885.362366,662.934875 898.987122,665.553772 912.306641,669.139954 
	C917.257996,670.473145 922.359253,671.804443 926.851807,674.164978 
	C934.969543,678.430237 938.615112,687.269775 934.386780,693.765930 
	C931.681641,697.921936 927.075989,701.729614 922.472412,703.587219 
	C910.766479,708.310730 898.402222,707.955017 886.121155,705.467285 
	C875.108154,703.236328 867.011841,696.572266 859.814209,688.386230 
	C858.680115,687.096313 855.682495,685.651794 854.786438,686.223206 
	C845.859863,691.915161 837.193665,698.015442 828.519775,703.955444 
	C834.272278,714.428589 845.458252,722.651672 859.566956,727.906006 
	C881.676941,736.140381 904.424011,737.498535 927.410278,733.784485 
	C944.940186,730.952026 960.488037,723.750671 971.766296,708.175354 
z"/>
<path fill="#FFE031" opacity="1.000000" stroke="none" 
	d="
M440.566345,736.192871 
	C438.252960,741.254944 434.288300,742.873535 429.443848,742.874695 
	C386.130371,742.885132 342.816711,742.939636 299.503510,742.831970 
	C290.243713,742.809021 286.991516,739.187622 286.990723,729.960815 
	C286.985931,674.319519 286.985565,618.678223 286.990875,563.036926 
	C286.991882,552.572021 289.538147,549.988525 299.777008,549.988464 
	C342.424225,549.988159 385.071442,549.986023 427.718658,549.990540 
	C435.991760,549.991394 438.984436,552.897400 438.986816,560.997742 
	C438.989258,569.326355 438.959137,577.655334 438.885590,585.983582 
	C438.795166,596.219055 435.153503,599.878418 425.030151,599.887939 
	C402.873596,599.908752 380.717041,599.894409 358.560486,599.894409 
	C356.761963,599.894409 354.963440,599.894409 352.797607,599.894409 
	C352.797607,607.096252 352.797607,613.796204 352.797607,621.105591 
	C357.465698,621.105591 361.921082,621.105469 366.376434,621.105652 
	C375.705505,621.106079 385.035431,621.029663 394.363434,621.129395 
	C403.316132,621.225098 406.636292,624.639160 406.701050,633.669800 
	C406.760803,641.998901 406.759644,650.329102 406.701416,658.658264 
	C406.639404,667.532959 403.573761,670.629639 394.614258,670.692688 
	C382.620331,670.777039 370.625366,670.714050 358.630829,670.714233 
	C356.834656,670.714233 355.038483,670.714172 352.478088,670.714172 
	C352.478088,677.475098 352.265594,683.740295 352.698181,689.960693 
	C352.766113,690.937744 355.754242,692.454529 357.401520,692.466858 
	C379.723419,692.634155 402.046997,692.566772 424.370087,692.596497 
	C427.028046,692.600037 429.702301,692.688965 432.339996,692.991394 
	C438.154144,693.658020 440.918152,695.990479 441.043213,701.906372 
	C441.282074,713.204163 440.856110,724.516113 440.566345,736.192871 
M392.375854,661.108643 
	C393.817657,661.006165 395.259491,660.903687 396.754089,660.797424 
	C396.754089,650.719177 396.754089,640.997559 396.754089,630.891296 
	C394.764587,630.891296 393.127136,630.891357 391.489685,630.891296 
	C379.327087,630.891113 367.164154,630.947388 355.002045,630.869873 
	C347.309113,630.820801 343.401886,627.732300 343.129181,621.046021 
	C342.830719,613.728699 342.963531,606.387329 343.113953,599.060669 
	C343.204163,594.668030 345.759094,591.930908 349.969269,591.020569 
	C352.384125,590.498413 354.915649,590.328735 357.395355,590.322998 
	C379.387848,590.272034 401.380554,590.298950 423.373169,590.282776 
	C425.143860,590.281494 426.914398,590.130737 428.972778,590.036255 
	C428.972778,579.659058 428.972778,569.742981 428.972778,559.174561 
	C427.019989,559.174561 425.239838,559.174561 423.459717,559.174561 
	C382.973297,559.174561 342.486389,559.264160 302.001007,559.059814 
	C297.007172,559.034607 296.058044,560.646240 296.071838,565.288391 
	C296.232269,619.269775 296.174469,673.251892 296.174469,727.233765 
	C296.174469,729.015259 296.174469,730.796814 296.174469,732.760071 
	C341.638245,732.760071 386.504639,732.760071 431.429871,732.760071 
	C431.429871,722.359619 431.429871,712.311646 431.429871,702.008728 
	C429.210999,702.008728 427.387146,702.008728 425.563324,702.008728 
	C401.238159,702.008667 376.912964,702.020386 352.587799,702.001404 
	C345.311035,701.995728 343.092041,699.803833 343.010132,692.462219 
	C342.933960,685.632019 342.959839,678.800110 342.999817,671.969299 
	C343.045929,664.088989 345.998840,661.139893 353.910187,661.118042 
	C366.405914,661.083496 378.901764,661.108826 392.375854,661.108643 
z"/>
<path fill="#FFE02F" opacity="1.000000" stroke="none" 
	d="
M624.738647,612.642212 
	C622.538696,631.745483 613.225586,649.033081 591.683228,659.930054 
	C595.390747,668.192749 599.110901,676.488953 602.835449,684.783203 
	C609.038696,698.597229 615.244324,712.410095 621.449829,726.223145 
	C625.792358,735.889282 621.369141,742.846191 610.782837,742.879089 
	C596.616516,742.923157 582.449829,742.916443 568.283386,742.879028 
	C560.266968,742.857849 556.764465,740.478516 554.027100,733.002625 
	C547.278137,714.571228 540.606873,696.111267 533.926270,677.654785 
	C531.080200,669.792053 531.104980,669.777527 522.886658,669.897888 
	C521.737488,669.914673 520.589478,670.017151 518.866272,670.111389 
	C518.764160,671.958191 518.586060,673.703674 518.583862,675.449402 
	C518.562439,692.449219 518.581116,709.449036 518.566406,726.448853 
	C518.555176,739.397400 515.123840,742.875183 502.369507,742.887695 
	C490.036285,742.899841 477.702789,742.942017 465.369965,742.870605 
	C456.385651,742.818604 453.015137,739.445984 453.009552,730.374939 
	C452.974945,674.042175 452.973969,617.709473 453.011963,561.376709 
	C453.017609,553.000183 456.143799,549.997742 464.542694,549.999023 
	C493.375580,550.003540 522.209717,549.888428 551.040710,550.133057 
	C563.915405,550.242310 576.588013,552.274719 588.683350,556.934021 
	C614.254028,566.784363 626.003967,584.853455 624.738647,612.642212 
M466.681976,733.112427 
	C480.615082,733.112427 494.548187,733.112427 509.033966,733.112427 
	C509.033966,730.641296 509.033905,728.854065 509.033966,727.066895 
	C509.034698,708.075378 509.004486,689.083801 509.053131,670.092407 
	C509.070068,663.473145 511.765228,660.630737 518.351379,660.343750 
	C521.834351,660.192078 525.335510,660.453247 528.828369,660.530762 
	C535.605286,660.681213 539.158264,664.416199 541.344299,670.640991 
	C548.065430,689.779541 555.231445,708.761597 562.006348,727.881714 
	C563.374390,731.742493 565.192078,733.328308 569.507385,733.225708 
	C582.660706,732.913208 595.826294,733.122742 608.987061,733.098694 
	C610.540466,733.095886 612.093567,732.904663 614.028809,732.775330 
	C613.169617,730.700012 612.582031,729.167786 611.909546,727.673767 
	C602.487915,706.742065 593.048584,685.818298 583.627319,664.886414 
	C580.187256,657.243469 581.389099,654.250671 588.747742,650.548218 
	C607.363525,641.181763 615.703003,625.697510 615.340393,605.174072 
	C614.989014,585.286133 603.889404,573.325989 586.421509,566.097229 
	C572.441528,560.311951 557.646973,559.371826 542.819519,559.235657 
	C517.832764,559.006042 492.841217,559.294861 467.854584,559.061401 
	C463.189575,559.017822 462.053619,560.389709 462.066650,564.925537 
	C462.218964,617.901367 462.164520,670.877930 462.164795,723.854248 
	C462.164795,725.853333 462.296204,727.863098 462.134827,729.848999 
	C461.908905,732.628723 463.312103,733.370850 466.681976,733.112427 
z"/>
<path fill="#FFE02F" opacity="1.000000" stroke="none" 
	d="
M737.639282,740.693481 
	C707.354675,744.639160 677.355957,742.431519 647.418152,742.700684 
	C639.568481,742.771240 635.862427,738.539307 635.855408,730.727661 
	C635.804321,674.096558 635.808594,617.465393 635.847595,560.834290 
	C635.852783,553.277954 639.261963,550.019287 646.958130,550.004944 
	C667.944885,549.965759 688.937134,549.696289 709.917175,550.072998 
	C732.093750,550.471191 753.730469,553.894409 773.154114,565.555603 
	C797.357361,580.086243 810.407959,601.949951 813.981323,629.654968 
	C816.691956,650.670898 814.715149,671.122437 805.923828,690.672974 
	C794.771912,715.472961 775.105957,730.102417 749.713623,737.884827 
	C745.909729,739.050720 741.950684,739.710510 737.639282,740.693481 
M645.006775,650.500000 
	C645.006775,677.904053 645.006775,705.308167 645.006775,733.111572 
	C647.612122,733.111572 649.421875,733.111572 651.231567,733.111572 
	C672.718262,733.111572 694.211304,733.414062 715.688721,732.968384 
	C724.770752,732.779785 734.031677,731.904236 742.844238,729.802002 
	C768.388367,723.708618 787.709229,709.428589 798.237488,684.677673 
	C804.684998,669.520142 806.296021,653.663574 805.337402,637.324219 
	C803.080566,598.855713 778.325562,570.371582 740.521301,562.945374 
	C709.166443,556.786133 677.488037,559.810730 645.929504,559.395142 
	C645.805786,559.393494 645.679382,559.601135 645.006775,560.191772 
	C645.006775,589.638489 645.006775,619.569214 645.006775,650.500000 
z"/>
<path fill="#FFFFFE" opacity="1.000000" stroke="none" 
	d="
M225.893402,619.000000 
	C225.893341,598.899719 225.893341,579.299377 225.893341,559.476379 
	C237.901810,559.476379 249.301254,559.476379 260.992767,559.476379 
	C260.992767,617.326782 260.992767,674.877563 260.992767,733.078430 
	C249.399399,733.078430 237.960052,733.236511 226.535370,732.898499 
	C224.925659,732.850891 223.066833,730.617981 221.864075,728.995667 
	C200.348007,699.973572 178.918793,670.887024 157.454163,641.826782 
	C156.470566,640.495117 155.565475,638.804504 154.203262,638.128784 
	C152.453857,637.260864 149.949646,636.451843 148.379211,637.097473 
	C146.811676,637.742065 145.751846,640.105652 144.940369,641.925598 
	C144.443329,643.040344 144.824875,644.550232 144.824799,645.882690 
	C144.823303,672.868652 144.823685,699.854553 144.823685,726.840515 
	C144.823685,728.650940 144.823685,730.461304 144.823685,732.687988 
	C132.615509,732.687988 120.741478,732.687988 108.176308,732.687988 
	C108.176308,730.941284 108.176300,729.170105 108.176300,727.398987 
	C108.176315,673.260559 108.224937,619.121948 108.086006,564.983887 
	C108.074638,560.552246 109.028549,558.898132 113.810944,559.059204 
	C124.792755,559.429199 135.797546,559.295715 146.788681,559.109802 
	C150.478653,559.047424 152.886581,560.158630 155.100037,563.265198 
	C174.130829,589.974854 193.326736,616.566956 212.516342,643.163147 
	C213.668228,644.759644 214.946838,646.496216 216.582230,647.467712 
	C221.029419,650.109680 225.372391,647.385559 225.677673,641.479065 
	C226.055527,634.168518 225.848053,626.827698 225.893402,619.000000 
z"/>
<path fill="#FFFFFE" opacity="1.000000" stroke="none" 
	d="
M971.561035,708.476624 
	C960.488037,723.750671 944.940186,730.952026 927.410278,733.784485 
	C904.424011,737.498535 881.676941,736.140381 859.566956,727.906006 
	C845.458252,722.651672 834.272278,714.428589 828.519775,703.955444 
	C837.193665,698.015442 845.859863,691.915161 854.786438,686.223206 
	C855.682495,685.651794 858.680115,687.096313 859.814209,688.386230 
	C867.011841,696.572266 875.108154,703.236328 886.121155,705.467285 
	C898.402222,707.955017 910.766479,708.310730 922.472412,703.587219 
	C927.075989,701.729614 931.681641,697.921936 934.386780,693.765930 
	C938.615112,687.269775 934.969543,678.430237 926.851807,674.164978 
	C922.359253,671.804443 917.257996,670.473145 912.306641,669.139954 
	C898.987122,665.553772 885.362366,662.934875 872.298645,658.604980 
	C854.327576,652.648499 840.929016,641.310608 835.915039,622.092407 
	C831.126160,603.736938 838.673523,583.379700 854.043030,572.124512 
	C872.897522,558.317017 894.344055,555.615784 916.752869,557.409363 
	C931.498230,558.589600 945.698914,562.176819 958.227661,570.411133 
	C963.003174,573.549683 967.102356,577.717346 972.245544,582.033447 
	C962.995911,588.724060 954.784058,594.846619 946.281982,600.535461 
	C945.418030,601.113525 942.367432,599.513000 941.075745,598.194519 
	C927.872192,584.716919 911.556335,584.337585 894.580627,587.066467 
	C891.560059,587.552002 888.593384,589.082886 885.880798,590.622620 
	C880.760132,593.529297 877.662231,597.880676 878.006470,604.067383 
	C878.339539,610.052002 881.828613,614.211914 886.973145,616.275879 
	C893.729797,618.986633 900.831238,620.881287 907.858459,622.864685 
	C920.014832,626.295715 932.295044,629.298523 944.404968,632.880981 
	C982.224121,644.068604 987.301392,684.935242 971.561035,708.476624 
z"/>
<path fill="#FFFFFE" opacity="1.000000" stroke="none" 
	d="
M391.886719,661.108765 
	C378.901764,661.108826 366.405914,661.083496 353.910187,661.118042 
	C345.998840,661.139893 343.045929,664.088989 342.999817,671.969299 
	C342.959839,678.800110 342.933960,685.632019 343.010132,692.462219 
	C343.092041,699.803833 345.311035,701.995728 352.587799,702.001404 
	C376.912964,702.020386 401.238159,702.008667 425.563324,702.008728 
	C427.387146,702.008728 429.210999,702.008728 431.429871,702.008728 
	C431.429871,712.311646 431.429871,722.359619 431.429871,732.760071 
	C386.504639,732.760071 341.638245,732.760071 296.174469,732.760071 
	C296.174469,730.796814 296.174469,729.015259 296.174469,727.233765 
	C296.174469,673.251892 296.232269,619.269775 296.071838,565.288391 
	C296.058044,560.646240 297.007172,559.034607 302.001007,559.059814 
	C342.486389,559.264160 382.973297,559.174561 423.459717,559.174561 
	C425.239838,559.174561 427.019989,559.174561 428.972778,559.174561 
	C428.972778,569.742981 428.972778,579.659058 428.972778,590.036255 
	C426.914398,590.130737 425.143860,590.281494 423.373169,590.282776 
	C401.380554,590.298950 379.387848,590.272034 357.395355,590.322998 
	C354.915649,590.328735 352.384125,590.498413 349.969269,591.020569 
	C345.759094,591.930908 343.204163,594.668030 343.113953,599.060669 
	C342.963531,606.387329 342.830719,613.728699 343.129181,621.046021 
	C343.401886,627.732300 347.309113,630.820801 355.002045,630.869873 
	C367.164154,630.947388 379.327087,630.891113 391.489685,630.891296 
	C393.127136,630.891357 394.764587,630.891296 396.754089,630.891296 
	C396.754089,640.997559 396.754089,650.719177 396.754089,660.797424 
	C395.259491,660.903687 393.817657,661.006165 391.886719,661.108765 
z"/>
<path fill="#FFFFFE" opacity="1.000000" stroke="none" 
	d="
M466.206635,733.111938 
	C463.312103,733.370850 461.908905,732.628723 462.134827,729.848999 
	C462.296204,727.863098 462.164795,725.853333 462.164795,723.854248 
	C462.164520,670.877930 462.218964,617.901367 462.066650,564.925537 
	C462.053619,560.389709 463.189575,559.017822 467.854584,559.061401 
	C492.841217,559.294861 517.832764,559.006042 542.819519,559.235657 
	C557.646973,559.371826 572.441528,560.311951 586.421509,566.097229 
	C603.889404,573.325989 614.989014,585.286133 615.340393,605.174072 
	C615.703003,625.697510 607.363525,641.181763 588.747742,650.548218 
	C581.389099,654.250671 580.187256,657.243469 583.627319,664.886414 
	C593.048584,685.818298 602.487915,706.742065 611.909546,727.673767 
	C612.582031,729.167786 613.169617,730.700012 614.028809,732.775330 
	C612.093567,732.904663 610.540466,733.095886 608.987061,733.098694 
	C595.826294,733.122742 582.660706,732.913208 569.507385,733.225708 
	C565.192078,733.328308 563.374390,731.742493 562.006348,727.881714 
	C555.231445,708.761597 548.065430,689.779541 541.344299,670.640991 
	C539.158264,664.416199 535.605286,660.681213 528.828369,660.530762 
	C525.335510,660.453247 521.834351,660.192078 518.351379,660.343750 
	C511.765228,660.630737 509.070068,663.473145 509.053131,670.092407 
	C509.004486,689.083801 509.034698,708.075378 509.033966,727.066895 
	C509.033905,728.854065 509.033966,730.641296 509.033966,733.112427 
	C494.548187,733.112427 480.615082,733.112427 466.206635,733.111938 
M512.299805,631.408813 
	C514.022217,631.904785 515.739136,632.805786 517.467896,632.829041 
	C526.616821,632.952209 535.774658,633.054504 544.918152,632.784546 
	C557.177124,632.422729 565.976440,624.104797 566.829956,612.503113 
	C567.732300,600.237915 559.925354,588.892212 548.106750,587.436218 
	C538.111511,586.204773 527.878357,586.370911 517.778137,586.719543 
	C511.445679,586.938049 509.103333,590.221008 509.048462,596.578918 
	C508.973816,605.230225 508.819519,613.890991 509.156647,622.529907 
	C509.266327,625.340881 510.809296,628.096008 512.299805,631.408813 
z"/>
<path fill="#FFFFFE" opacity="1.000000" stroke="none" 
	d="
M645.006775,650.000000 
	C645.006775,619.569214 645.006775,589.638489 645.006775,560.191772 
	C645.679382,559.601135 645.805786,559.393494 645.929504,559.395142 
	C677.488037,559.810730 709.166443,556.786133 740.521301,562.945374 
	C778.325562,570.371582 803.080566,598.855713 805.337402,637.324219 
	C806.296021,653.663574 804.684998,669.520142 798.237488,684.677673 
	C787.709229,709.428589 768.388367,723.708618 742.844238,729.802002 
	C734.031677,731.904236 724.770752,732.779785 715.688721,732.968384 
	C694.211304,733.414062 672.718262,733.111572 651.231567,733.111572 
	C649.421875,733.111572 647.612122,733.111572 645.006775,733.111572 
	C645.006775,705.308167 645.006775,677.904053 645.006775,650.000000 
M711.078735,589.319702 
	C708.583313,589.211914 706.088501,589.086426 703.592346,588.999329 
	C693.237732,588.638062 691.839844,590.002014 691.833984,600.612000 
	C691.820557,624.933899 691.828247,649.255859 691.830566,673.577759 
	C691.831238,680.574402 691.737976,687.573120 691.878906,694.567017 
	C692.018066,701.469666 694.448730,703.880188 701.347595,703.835632 
	C705.492676,703.808777 709.648071,703.413635 713.775757,702.969421 
	C733.640076,700.831543 748.092529,688.545776 753.286133,669.357422 
	C757.184753,654.953552 757.192993,640.352234 754.496948,625.814392 
	C751.644165,610.431702 743.634827,598.620728 728.483582,593.017761 
	C723.255249,591.084351 717.503052,590.567444 711.078735,589.319702 
z"/>
<path fill="#FFE034" opacity="1.000000" stroke="none" 
	d="
M511.998260,631.142700 
	C510.809296,628.096008 509.266327,625.340881 509.156647,622.529907 
	C508.819519,613.890991 508.973816,605.230225 509.048462,596.578918 
	C509.103333,590.221008 511.445679,586.938049 517.778137,586.719543 
	C527.878357,586.370911 538.111511,586.204773 548.106750,587.436218 
	C559.925354,588.892212 567.732300,600.237915 566.829956,612.503113 
	C565.976440,624.104797 557.177124,632.422729 544.918152,632.784546 
	C535.774658,633.054504 526.616821,632.952209 517.467896,632.829041 
	C515.739136,632.805786 514.022217,631.904785 511.998260,631.142700 
M541.382935,623.280212 
	C542.214478,623.256226 543.046692,623.247070 543.877380,623.205933 
	C551.983948,622.804443 556.352966,619.483582 557.120117,613.147278 
	C558.180481,604.388123 555.065613,598.062500 546.937073,596.991882 
	C537.737976,595.780273 528.256531,596.712463 519.049438,596.712463 
	C519.049438,605.494324 519.049438,614.204834 519.049438,623.281860 
	C526.477661,623.281860 533.445923,623.281860 541.382935,623.280212 
z"/>
<path fill="#FFE02E" opacity="1.000000" stroke="none" 
	d="
M711.534424,589.361572 
	C717.503052,590.567444 723.255249,591.084351 728.483582,593.017761 
	C743.634827,598.620728 751.644165,610.431702 754.496948,625.814392 
	C757.192993,640.352234 757.184753,654.953552 753.286133,669.357422 
	C748.092529,688.545776 733.640076,700.831543 713.775757,702.969421 
	C709.648071,703.413635 705.492676,703.808777 701.347595,703.835632 
	C694.448730,703.880188 692.018066,701.469666 691.878906,694.567017 
	C691.737976,687.573120 691.831238,680.574402 691.830566,673.577759 
	C691.828247,649.255859 691.820557,624.933899 691.833984,600.612000 
	C691.839844,590.002014 693.237732,588.638062 703.592346,588.999329 
	C706.088501,589.086426 708.583313,589.211914 711.534424,589.361572 
M739.161987,612.451965 
	C729.762634,599.425903 715.662842,599.038757 701.363037,598.316467 
	C701.363037,630.323914 701.363037,662.155884 701.363037,693.951721 
	C723.158997,696.109619 739.935303,685.029236 744.714294,665.397156 
	C745.692261,661.379944 746.289917,657.219849 746.569580,653.092163 
	C747.511169,639.194641 747.121399,625.476074 739.161987,612.451965 
z"/>
<path fill="#FFFFFC" opacity="1.000000" stroke="none" 
	d="
M540.898560,623.281006 
	C533.445923,623.281860 526.477661,623.281860 519.049438,623.281860 
	C519.049438,614.204834 519.049438,605.494324 519.049438,596.712463 
	C528.256531,596.712463 537.737976,595.780273 546.937073,596.991882 
	C555.065613,598.062500 558.180481,604.388123 557.120117,613.147278 
	C556.352966,619.483582 551.983948,622.804443 543.877380,623.205933 
	C543.046692,623.247070 542.214478,623.256226 540.898560,623.281006 
z"/>
<path fill="#FFFFFE" opacity="1.000000" stroke="none" 
	d="
M739.385498,612.738342 
	C747.121399,625.476074 747.511169,639.194641 746.569580,653.092163 
	C746.289917,657.219849 745.692261,661.379944 744.714294,665.397156 
	C739.935303,685.029236 723.158997,696.109619 701.363037,693.951721 
	C701.363037,662.155884 701.363037,630.323914 701.363037,598.316467 
	C715.662842,599.038757 729.762634,599.425903 739.385498,612.738342 
z"/>
</svg>